<svg xmlns="http://www.w3.org/2000/svg" viewBox="0 0 829.45 829.51"><g id="Capa_2" data-name="Capa 2"><g id="Capa_2-2" data-name="Capa 2"><path d="M414.41.25C591.47-4.11,757.15,119.19,810.78,290.46,870.2,480.21,784.68,693.9,598.93,785.9c-96.2,47.64-196.75,55.75-300.61,26.74-59.3-16.55-119-19.08-178.95.12-64,20.49-122.08-33.55-107.7-99.17,2.24-10.18,6.16-20,9.4-30C36.88,635,33,586.06,18.67,538.51-37.75,351.2,36.43,156.32,204.32,56.09,260.75,22.4,337-2.8,414.41.25ZM322.3,424.75v-10c.06-68.45-60.18-120.5-131.31-88.76-4.88,2.17-11,4.68-15,1.17-10.72-9.4-23.2-6.59-35.33-7.12-13.35-.58-18.8,5.33-18.26,18.93q1.85,45.66,2.11,91.39c.35,50.5-.06,101,.31,151.51.13,16.48,10.64,27.76,24.46,28.17s25.52-12,26.07-28.38c.4-11.9-.07-23.83.22-35.73.41-16.68,5.34-20,21.38-15.93,24.1,6.1,48.28,7.44,71.05-4.49C308.53,504.25,323,468.47,322.3,424.75Zm215-6.05h.55c0,28.62-.4,57.24.14,85.84.37,19.92,20.39,32.33,37.24,23.45,11.25-5.92,15.34-16.18,15.29-28.61-.12-31.48-.37-63,.17-94.42.4-24.21,19.12-43.08,41.15-42.73,20.24.31,33.76,16.23,34.77,41.16.29,7.14.14,14.31.18,21.46.16,26.22-.46,52.48.71,78.66.88,19.72,9.57,27.56,26,27,15.11-.56,25.57-11.42,25.75-28.5.37-35.29,1.25-70.63-.26-105.86-2.66-62-53.34-94.35-111.41-72.31-6.86,2.6-14.23,5.42-20.71,1.6-10.66-6.29-21.94-4.9-33.27-5.46-12.62-.62-16.68,5.15-16.44,17.22C537.71,364.33,537.33,391.52,537.33,418.7ZM402.22,382.14c0-41,.16-82-.07-123-.1-17.29-10.33-28.1-25.54-28.09S351,241.92,351,259.18q-.3,121.57-.07,243.16c0,6.27.67,12.33,4.9,17.51,7.79,9.53,17.92,13.34,29.3,9.26,11.2-4,17.18-12.78,17.12-25.39C402.08,463.19,402.19,422.66,402.22,382.14Zm43.21,43.32h.07c0,26.67-.35,53.35.13,80,.31,17,8.65,24.91,24.61,25,14.65.07,25.71-9.35,25.86-24.64q.78-80,.06-160a25.55,25.55,0,0,0-25.56-25.51c-15,0-25,10.26-25.11,26.59C445.26,373.07,445.43,399.27,445.43,425.46Zm26.21-170.83a25.62,25.62,0,0,0-25.41,26.93c.55,14.09,12.19,25.28,26,25s26.64-13.51,26-26.93C497.56,266.42,484.7,254.35,471.64,254.63Z"/><path d="M175.71,428.78c-.32-10.93-.62-21.82,3-32.47,7.08-20.95,22.69-33.95,42.34-34.75,19.18-.78,36.25,10,44.06,30.18,9.29,24,9,48.64-2,72.15-10.08,21.62-28.66,29.62-53.54,24.74-17.56-3.45-32-20.83-33.78-41.31C175.25,441.19,175.71,435,175.71,428.78Z"/></g></g></svg>